<svg
   xmlns:dc="http://purl.org/dc/elements/1.1/"
   xmlns:cc="http://creativecommons.org/ns#"
   xmlns:rdf="http://www.w3.org/1999/02/22-rdf-syntax-ns#"
   xmlns:svg="http://www.w3.org/2000/svg"
   xmlns="http://www.w3.org/2000/svg"
   viewBox="0 0 298 136"
   height="136"
   width="298"
   id="svg2"
   version="1.1">
  <metadata
     id="metadata8">
    <rdf:RDF>
      <cc:Work
         rdf:about="">
        <dc:format>image/svg+xml</dc:format>
        <dc:type
           rdf:resource="http://purl.org/dc/dcmitype/StillImage" />
        <dc:title></dc:title>
      </cc:Work>
    </rdf:RDF>
  </metadata>
  <defs
     id="defs6" />
  <g
     id="g817">
    <path
       id="path821"
       d="M 263.5,96.336105 C 246.06929,95.188131 241.75648,94.594621 238.12546,92.84418 l -4.37453,-2.108879 0.58343,-6.11765 c 0.32089,-3.364708 1.37121,-18.648081 2.33405,-33.963052 0.96284,-15.31497 2.21884,-28.41826 2.79111,-29.118421 0.84075,-1.028659 5.83935,-0.943927 26.04048,0.441417 20.71829,1.420809 25.55084,2.040339 28.21621,3.617302 l 3.21621,1.902863 -0.60314,7.50112 c -0.33172,4.125616 -0.95827,7.957174 -1.39233,8.514574 -0.50519,0.64873 -4.68314,0.772215 -11.60925,0.343127 -5.95103,-0.368679 -11.15927,-0.460675 -11.57388,-0.204436 C 271.33922,43.908384 271,45.174249 271,46.465179 c 0,2.071739 0.61318,2.431479 5.22579,3.065875 4.31504,0.593469 7.36512,1.779543 10.67621,4.151622 0.85081,0.609518 -0.0677,14.869324 -1.01878,15.817324 -0.55182,0.55 -4.46378,1 -8.69326,1 -7.53596,0 -7.68996,0.05007 -7.68996,2.5 0,2.419067 0.29136,2.527277 9,3.342594 5.21016,0.487783 9.6648,1.435242 10.57874,2.25 0.86831,0.774073 2.10581,1.407406 2.75,1.407406 1.61951,0 1.59355,15.177711 -0.0287,16.8 -1.36413,1.364133 -0.27151,1.382043 -28.3,-0.463895 z M 118,96.353351 C 112.13405,95.267692 106.11124,92.73741 100.5,89.00131 93.962269,84.648331 93,84.309535 93,86.360709 93,88.006837 86.056602,88.978887 74.209507,88.991308 64.756227,89.001219 60.915798,87.113291 58.462119,81.25 L 57.102053,78 H 49.08621 c -8.887079,0 -9.298192,0.282582 -10.613825,7.295508 -0.387824,2.067278 -1.483146,4.175067 -2.43405,4.683976 -0.950904,0.508908 -7.140229,0.995291 -13.754057,1.080851 C 12.240468,91.190267 9.7846814,90.918448 7.3795679,89.410609 5.7958055,88.4177 4.3828125,87.539435 4.2395834,87.45891 3.8286571,87.227881 22.109202,19.687748 23.073827,17.873056 23.80577,16.496096 26.94705,16.133311 43.517851,15.511983 60.788048,14.864431 63.306994,14.96785 64.877266,16.388927 65.856384,17.275017 67.135187,18 67.719049,18 c 0.583862,0 3.878423,7.890156 7.321246,17.53368 3.442824,9.643524 6.628992,17.761928 7.080375,18.040898 0.451383,0.27897 1.099304,-0.748686 1.439825,-2.28368 2.246468,-10.126592 4.967451,-15.576496 10.608468,-21.247887 11.251417,-11.312005 30.516677,-13.225637 47.636177,-4.731735 7.54829,3.74511 7.67976,3.633134 8.63847,-7.357298 0.39133,-4.486048 1.2447,-8.2803367 2.00408,-8.9105681 0.96491,-0.8008039 4.60862,-0.6907951 13.47443,0.4068121 13.55251,1.677832 16.57283,3.166007 21.48234,10.584774 C 188.84762,22.215748 190.44708,24 190.95882,24 c 0.51174,0 3.14523,-2.25 5.85219,-5 5.47115,-5.558127 4.94443,-5.452687 19.40315,-3.88416 8.13978,0.883029 11.06825,1.64165 14.03584,3.636001 2.0625,1.386088 3.75498,3.02146 3.76106,3.63416 0.058,5.843411 -7.54644,66.410398 -8.46226,67.399068 -0.96886,1.045939 -3.4636,1.003637 -13.40658,-0.227326 -10.07425,-1.247215 -12.79032,-1.950292 -15.49053,-4.009844 l -3.27433,-2.49745 1.2152,-10.775224 c 0.66836,-5.926374 0.98598,-11.146567 0.70583,-11.60043 -0.28016,-0.453863 -1.55428,0.156425 -2.83138,1.356196 l -2.32199,2.181401 -3.6017,-2.747151 c -1.98094,-1.510933 -4.00482,-3.467472 -4.49751,-4.347865 -1.58041,-2.824029 -2.25054,-0.495382 -3.7653,13.083981 -0.8159,7.314253 -1.86402,13.702381 -2.32917,14.195839 -0.49841,0.528738 -4.9889,0.426068 -10.93438,-0.25 C 159.46821,83.516238 153.55869,83 151.8847,83 c -2.83886,0 -3.00072,0.195268 -2.40609,2.902624 0.50943,2.31941 0.17377,3.229507 -1.67054,4.529505 C 142.4958,94.176577 125.00816,97.650408 118,96.353351 Z m 28.51568,-44.174895 c 0.92101,-8.42685 1.41271,-15.5834 1.09266,-15.903445 -0.32004,-0.320045 -2.56486,3.69051 -4.98848,8.912345 l -4.40658,9.494246 -8.13416,-0.47088 c -6.83667,-0.395769 -8.4488,-0.18614 -10.10664,1.314187 -2.33758,2.115474 -2.5758,5.029599 -0.47699,5.834985 0.82251,0.31563 4.01569,0.107987 7.09593,-0.461427 7.01364,-1.296542 11.88554,0.609083 13.90849,5.440255 3.16064,7.548176 3.81028,6.019008 6.01577,-14.160266 z M 49.444227,57.090242 C 50.133093,55.975634 49.082424,53 48,53 46.917576,53 45.866907,55.975634 46.555773,57.090242 46.865016,57.590609 47.514919,58 48,58 c 0.485081,0 1.134984,-0.409391 1.444227,-0.909758 z"
       style="fill:#ed0505" />
    <path
       id="path819"
       d="m 14.923324,124.0766 c -5.74836,-5.74835 -2.93618,-15.91922 4.9918,-18.054 4.18243,-1.12621 9.48366,-0.45256 11.02162,1.40057 1.62159,1.9539 -2.40198,7.57651 -5.4218,7.57651 -1.56862,0 -2.5147,0.56433 -2.5147,1.5 0,0.99712 0.99715,1.5 2.97432,1.5 2.30884,0 3.32973,0.68729 4.56283,3.07183 2.32046,4.48729 0.68311,5.92817 -6.73652,5.92817 -5.24793,0 -6.30132,-0.34685 -8.87755,-2.92308 z m 26.19379,1.29239 c -3.08443,-2.16042 -5.31778,-7.67699 -4.50499,-11.12773 0.82984,-3.52315 4.90494,-7.90349 8.09839,-8.705 3.47672,-0.8726 8.87909,1.12592 11.27409,4.17067 1.33377,1.69561 2.01564,4.06518 2.01564,7.00453 0,6.24489 -4.00888,10.28822 -10.20057,10.28822 -2.40723,0 -5.3955,-0.7292 -6.68256,-1.63069 z m 7.38313,-10.36931 c -0.48382,-0.78284 -1.05907,-0.84093 -1.72573,-0.17426 -0.55,0.55 -0.67342,1.52841 -0.27427,2.17426 0.48382,0.78284 1.05907,0.84093 1.72574,0.17426 0.55,-0.55 0.67341,-1.52841 0.27426,-2.17426 z m 15.92719,10.67086 c -0.28052,-0.73103 -0.3789,-5.34353 -0.21861,-10.25 l 0.29142,-8.92086 7.488223,-0.29862 c 4.118523,-0.16424 8.521326,-0.0393 9.784009,0.27759 3.165321,0.79444 4.753239,4.57491 3.469,8.25888 -0.745476,2.13847 -0.656849,3.52907 0.339566,5.32795 0.741582,1.33881 1.364277,3.4467 1.383767,4.6842 0.03147,1.99796 -0.457689,2.25 -4.36674,2.25 -3.992237,0 -4.499562,-0.27936 -5.44798,-3 -0.575193,-1.65 -1.462965,-3 -1.972825,-3 -0.509861,0 -1.19702,1.35 -1.52702,3 -0.548335,2.74167 -0.949291,3 -4.65638,3 -2.45144,0 -4.25819,-0.52589 -4.56643,-1.32914 z m 11.57281,-13.11184 c 0,-0.24254 -0.45,-0.7191 -1,-1.05902 -0.55,-0.33992 -1,-0.14148 -1,0.44098 0,0.58246 0.45,1.05902 1,1.05902 0.55,0 1,-0.19844 1,-0.44098 z m 16.449426,13.16978 c -0.292752,-0.7629 -0.401134,-5.40147 -0.240851,-10.30794 l 0.291425,-8.92086 8.647966,-0.28744 c 8.33732,-0.27712 8.72347,-0.19146 10.75,2.38485 2.64397,3.36127 2.65093,5.43506 0.0294,8.76773 -1.60018,2.0343 -2.9533,2.63486 -5.93664,2.63486 -3.62851,0 -3.88317,0.19812 -4.17742,3.25 -0.29425,3.05177 -0.57314,3.26878 -4.572505,3.55794 -2.933504,0.2121 -4.424818,-0.12378 -4.791425,-1.07914 z m 11.55057,-13.28782 c 0,-0.85746 -0.45,-1.2809 -1,-0.94098 -0.55,0.33992 -1,1.04148 -1,1.55902 0,0.51754 0.45,0.94098 1,0.94098 0.55,0 1,-0.70156 1,-1.55902 z m 16.92308,11.63594 c -5.6671,-5.6671 -3.21895,-15.50405 4.49187,-18.04885 4.42744,-1.46119 7.71208,-0.5487 11.22547,3.1185 2.28342,2.38337 2.85958,3.89474 2.85958,7.50112 0,3.83753 -0.49087,4.95496 -3.26578,7.43434 -4.63903,4.14498 -11.16324,4.1428 -15.31114,-0.005 z m 9.07692,-8.66025 c 0,-1.76593 -2.15276,-1.45839 -2.77083,0.39583 -0.21771,0.65313 0.31666,1.1875 1.1875,1.1875 0.87083,0 1.58333,-0.7125 1.58333,-1.58333 z m 15.48657,9.38586 c -0.31877,-1.27008 -0.44615,-5.90773 -0.28307,-10.30589 l 0.2965,-7.99664 8.36107,-0.29224 c 11.13945,-0.38934 13.64946,1.0509 12.78776,7.33763 -0.38837,2.83352 -0.0726,5.58959 0.90999,7.94115 1.9091,4.56912 1.28071,5.51346 -3.66886,5.51346 -3.64464,0 -4.12405,-0.31601 -5.50939,-3.6316 -1.59999,-3.82932 -2.98165,-3.58321 -3.54589,0.6316 -0.289,2.15876 -0.91027,2.54175 -4.5516,2.80588 -3.69458,0.26799 -4.28872,0.0198 -4.79651,-2.00335 z m 11.51343,-12.80253 c 0,-0.55 -0.19844,-1 -0.44098,-1 -0.24254,0 -0.7191,0.45 -1.05902,1 -0.33992,0.55 -0.14148,1 0.44098,1 0.58246,0 1.05902,-0.45 1.05902,-1 z m 15.55108,14.08266 c -0.31182,-0.50454 0.92301,-5.11704 2.74408,-10.25 l 3.31102,-9.33266 6.53952,-0.2921 c 4.45207,-0.19886 6.86636,0.12034 7.56341,1 1.14822,1.449 6.29089,16.60957 6.29089,18.54551 0,1.80869 -7.463,1.59856 -9,-0.25341 -0.68469,-0.825 -2.71664,-1.5 -4.51546,-1.5 -1.98468,0 -3.49687,0.58975 -3.84617,1.5 -0.64097,1.67035 -8.11873,2.14981 -9.08729,0.58266 z m 33.16264,0.29773 c -0.39255,-0.39255 -0.71372,-2.93085 -0.71372,-5.64068 0,-4.05829 -0.34678,-5.01763 -1.96688,-5.4413 -2.35353,-0.61546 -3.44506,-3.52099 -2.59504,-6.90773 0.60846,-2.4243 0.77067,-2.46024 9.82887,-2.17783 7.99891,0.24939 9.25622,0.5277 9.56018,2.11624 0.59596,3.11463 -0.71323,6.40786 -2.76018,6.94315 -1.57965,0.41309 -2.01366,1.5398 -2.26094,5.86949 l -0.30601,5.35827 -4.03628,0.29705 c -2.21995,0.16338 -4.35745,-0.0241 -4.75,-0.41666 z m 18.91296,-0.91087 c -0.80303,-2.09267 -0.81813,-15.80703 -0.0197,-17.88773 0.42705,-1.11285 1.91973,-1.58179 5.03499,-1.58179 h 4.428 l -0.28499,10.25 -0.28498,10.25 -4.12332,0.30131 c -3.08276,0.22527 -4.28147,-0.11082 -4.75,-1.33179 z m 18.2964,-1.3926 c -2.35338,-2.35337 -2.92308,-3.78882 -2.92308,-7.36514 0,-5.54983 2.70433,-9.24331 7.90978,-10.8029 10.96658,-3.28566 18.74393,11.15605 9.97949,18.53084 -4.46578,3.7577 -11.00419,3.59921 -14.96619,-0.3628 z m 9.07692,-8.66025 c 0,-0.87084 -0.53438,-1.40521 -1.1875,-1.1875 -1.85422,0.61807 -2.16176,2.77083 -0.39583,2.77083 0.87083,0 1.58333,-0.7125 1.58333,-1.58333 z m 15.47255,9.32997 c -0.31106,-1.23934 -0.43213,-5.85184 -0.26905,-10.25 l 0.2965,-7.99664 3.6846,-0.30647 c 2.8845,-0.23991 3.92358,0.14009 4.78518,1.75 1.40296,2.62145 2.64968,2.61965 3.336,-0.005 0.45709,-1.74791 1.19696,-2.01396 4.86663,-1.75 l 4.32759,0.31147 v 10 10 l -3.75804,0.31084 c -2.68953,0.22247 -3.92833,-0.13294 -4.35699,-1.25 -0.76183,-1.9853 -2.9942,-2.02156 -3.7466,-0.0608 -0.37931,0.98846 -1.94391,1.5 -4.58793,1.5 -3.32872,0 -4.10869,-0.38392 -4.57789,-2.25336 z M 263.50024,96.335782 C 246.06953,95.187808 241.75672,94.594298 238.1257,92.843857 l -4.37453,-2.108879 0.58343,-6.11765 c 0.32089,-3.364708 1.37121,-18.648081 2.33405,-33.963052 0.96284,-15.31497 2.21884,-28.41826 2.79111,-29.118421 0.84075,-1.028659 5.83935,-0.943927 26.04048,0.441417 20.71829,1.420809 25.55084,2.040339 28.21621,3.617302 l 3.21621,1.902863 -0.60314,7.50112 c -0.33172,4.125616 -0.95827,7.957174 -1.39233,8.514574 -0.50519,0.64873 -4.68314,0.772215 -11.60925,0.343127 -5.95103,-0.368679 -11.15927,-0.460675 -11.57388,-0.204436 -0.4146,0.256239 -0.75382,1.522104 -0.75382,2.813034 0,2.071739 0.61318,2.431479 5.22579,3.065875 4.31504,0.593469 7.36512,1.779543 10.67621,4.151622 0.85081,0.609518 -0.0677,14.869324 -1.01878,15.817324 -0.55182,0.55 -4.46378,1 -8.69326,1 -7.53596,0 -7.68996,0.05007 -7.68996,2.5 0,2.419067 0.29136,2.527277 9,3.342594 5.21016,0.487783 9.6648,1.435242 10.57874,2.25 0.86831,0.774073 2.10581,1.407406 2.75,1.407406 1.61951,0 1.59355,15.177711 -0.0287,16.8 -1.36413,1.364133 -0.27151,1.382043 -28.3,-0.463895 z m 21.29578,-10.447834 0.29578,-5.611729 -3.79578,-0.627265 c -2.08768,-0.344996 -6.49578,-0.638363 -9.79578,-0.651926 -10.05222,-0.04132 -10.50243,-0.336051 -10.48469,-6.863982 0.0221,-8.128923 0.37645,-8.423672 9.61391,-7.996954 l 7.87078,0.363585 0.54795,-4.7679 c 0.30138,-2.622345 0.22471,-5.290932 -0.17038,-5.930192 -0.39508,-0.63926 -4.01666,-1.418705 -8.04795,-1.732099 l -7.32962,-0.569809 -0.2936,-6.091371 c -0.19732,-4.093904 0.13328,-6.445652 1.0082,-7.171771 0.87074,-0.722647 4.71381,-0.851164 11.6059,-0.388116 5.66726,0.380757 10.73796,0.424146 11.26823,0.09642 0.53027,-0.327726 1.23419,-2.876058 1.56425,-5.66296 0.51979,-4.388759 0.34891,-5.141075 -1.27643,-5.619721 -3.76094,-1.107561 -44.4756,-2.963119 -45.31626,-2.065275 -0.46491,0.496537 -1.57403,12.827794 -2.46471,27.402794 -0.89067,14.575 -1.83822,28.3 -2.10565,30.5 -0.26744,2.2 -0.13117,4.549317 0.30282,5.220705 0.75977,1.175369 34.92363,4.281623 43.20725,3.928498 l 3.5,-0.149203 z m -166.79578,10.46508 c -5.86595,-1.085659 -11.88876,-3.615941 -17.5,-7.352041 -6.537727,-4.352979 -7.499996,-4.691775 -7.499996,-2.640601 0,1.646128 -6.943398,2.618178 -18.790493,2.630599 -9.453277,0.0099 -13.293707,-1.878017 -15.747387,-7.741308 l -1.36007,-3.25 h -8.01584 c -8.88708,0 -9.29819,0.282582 -10.61382,7.295508 -0.38783,2.067278 -1.48315,4.175067 -2.43405,4.683976 -0.95091,0.508908 -7.14023,0.995291 -13.75406,1.080851 -10.04381,0.129932 -12.4996,-0.141887 -14.90471,-1.649726 -1.58376,-0.992909 -2.99676,-1.871174 -3.13999,-1.951699 -0.41092,-0.231029 17.86962,-67.771162 18.83425,-69.585854 0.73194,-1.37696 3.87322,-1.739745 20.44402,-2.361073 17.2702,-0.647552 19.78914,-0.544133 21.35942,0.876944 0.97911,0.88609 2.25792,1.611073 2.84178,1.611073 0.58386,0 3.878422,7.890156 7.321245,17.53368 3.442824,9.643524 6.628992,17.761928 7.080375,18.040898 0.451383,0.27897 1.099304,-0.748686 1.439825,-2.28368 2.246468,-10.126592 4.967451,-15.576496 10.608468,-21.247887 11.251413,-11.312005 30.516673,-13.225637 47.636173,-4.731735 7.54829,3.74511 7.67976,3.633134 8.63847,-7.357298 0.39133,-4.486049 1.2447,-8.2803391 2.00408,-8.9105691 0.96491,-0.8008 4.60862,-0.69079 13.47443,0.40681 13.55251,1.6778401 16.57283,3.1660101 21.48234,10.5847771 1.44316,2.180752 3.04262,3.965004 3.55436,3.965004 0.51174,0 3.14523,-2.25 5.85219,-5 5.47115,-5.558131 4.94443,-5.452691 19.40315,-3.88416 8.13978,0.883029 11.06825,1.64165 14.03584,3.636001 2.0625,1.386088 3.75498,3.02146 3.76106,3.63416 0.058,5.843411 -7.54644,66.410398 -8.46226,67.399068 -0.96886,1.045939 -3.4636,1.003637 -13.40658,-0.227326 -10.07425,-1.247215 -12.79032,-1.950292 -15.49053,-4.009844 l -3.27433,-2.49745 1.2152,-10.775224 c 0.66836,-5.926374 0.98598,-11.146567 0.70583,-11.60043 -0.28016,-0.453863 -1.55428,0.156425 -2.83138,1.356196 l -2.32199,2.181401 -3.6017,-2.747151 c -1.98094,-1.510933 -4.00482,-3.467472 -4.49751,-4.347865 -1.58041,-2.824029 -2.25054,-0.495382 -3.7653,13.083981 -0.8159,7.314253 -1.86402,13.702381 -2.32917,14.195839 -0.49841,0.528738 -4.9889,0.426068 -10.93438,-0.25 -5.54875,-0.630958 -11.45827,-1.147196 -13.13226,-1.147196 -2.83886,0 -3.00072,0.195268 -2.40609,2.902624 0.50943,2.31941 0.17377,3.229507 -1.67054,4.529505 -5.31227,3.744448 -22.79991,7.218279 -29.80807,5.921222 z m 16.47279,-8.343076 c 3.28503,-1.13072 6.35823,-2.441296 6.82933,-2.912392 0.47538,-0.475385 -1.33239,-5.497053 -4.06246,-11.284813 l -4.919,-10.428274 -6.63463,0.422461 c -3.64904,0.232354 -7.78264,0.134328 -9.18576,-0.217834 -6.42552,-1.612702 -8.52354,-8.340035 -3.94298,-12.643242 2.17112,-2.039667 3.86419,-2.481252 11.21199,-2.924314 l 8.6547,-0.521867 3.96513,-9.287166 c 4.64325,-10.87547 4.51524,-11.236237 -4.84921,-13.666236 -7.80055,-2.024182 -17.00299,-1.962268 -23.67507,0.159285 -7.5189,2.390824 -16.80795,11.626502 -19.405605,19.294117 -2.420988,7.146136 -2.461899,18.737089 -0.09078,25.720239 3.168185,9.330582 12.473425,17.757653 22.366025,20.255249 5.41125,1.366187 16.79857,0.423471 23.73832,-1.965213 z M 29.662584,83.86495 c 0.64972,-0.539225 1.48255,-2.763421 1.85073,-4.942658 1.08921,-6.446972 2.12472,-6.922615 15.07097,-6.922615 h 11.44118 l 2.43236,5.5 2.43236,5.5 H 72.9766 c 7.991684,0 10.204596,-0.307978 10.655477,-1.482955 0.462506,-1.205271 -8.487131,-27.482865 -19.891523,-58.404771 l -1.98707,-5.387726 -17.62662,0.709485 c -9.69464,0.390217 -17.98304,1.056111 -18.41866,1.479765 -1.54532,1.502864 -17.89074,64.355148 -16.89725,64.9742 1.53506,0.956508 19.5303,0.07388 20.85163,-1.022725 z m 7.33766,-24.176036 c 0,-1.755398 5.8973,-24.71404 6.66888,-25.962496 0.8671,-1.402992 1.62341,0.242259 6.16195,13.404514 2.95994,8.584148 3.71635,11.921569 2.88939,12.748527 -1.65606,1.656055 -15.72022,1.485583 -15.72022,-0.190545 z m 12.44423,-2.598995 c 0.68886,-1.114608 -0.36181,-4.090242 -1.44423,-4.090242 -1.08242,0 -2.13309,2.975634 -1.44423,4.090242 0.30925,0.500367 0.95915,0.909758 1.44423,0.909758 0.48508,0 1.13498,-0.409391 1.44423,-0.909758 z M 219.42598,81.749677 c 0.73039,-3.542937 6.5758,-55.943678 6.57499,-58.940983 -4e-4,-1.480041 -0.34667,-2.904787 -0.76949,-3.166102 -0.42282,-0.261316 -5.42057,-1.015921 -11.10611,-1.676901 l -10.33735,-1.201781 -6.66899,6.617884 c -3.66794,3.639836 -7.35566,6.617883 -8.19493,6.617883 -0.83926,0 -3.70223,-3.6 -6.36215,-8 -2.65991,-4.4 -4.88694,-8.014637 -4.94896,-8.032526 -2.91418,-0.840655 -22.35317,-2.584345 -22.90081,-2.054215 -0.8768,0.84876 -7.99044,61.751233 -7.41457,63.478844 0.55792,1.673773 19.91234,3.735054 21.33357,2.272064 0.62202,-0.640292 1.88873,-8.364167 2.81492,-17.164167 1.82162,-17.307669 2.22376,-19.5 3.57687,-19.5 0.48838,0 2.76416,3.158119 5.0573,7.018042 2.29314,3.859924 4.60856,7.289497 5.14539,7.621274 0.53682,0.331777 3.85095,-2.246113 7.36471,-5.728645 3.83863,-3.804508 6.72484,-5.948452 7.23088,-5.371274 0.46322,0.528332 -0.0544,8.950675 -1.15035,18.716318 -1.09591,9.765643 -1.71252,18.035754 -1.37025,18.378024 0.76724,0.767244 10.54577,2.058191 16.93054,2.235144 4.15322,0.115106 4.78759,-0.143643 5.19479,-2.118883 z M 146.51592,52.178133 c 0.92101,-8.42685 1.41271,-15.5834 1.09266,-15.903445 -0.32004,-0.320045 -2.56486,3.69051 -4.98848,8.912345 l -4.40658,9.494246 -8.13416,-0.47088 c -6.83667,-0.395769 -8.4488,-0.18614 -10.10664,1.314187 -2.33758,2.115474 -2.5758,5.029599 -0.47699,5.834985 0.82251,0.31563 4.01569,0.107987 7.09593,-0.461427 7.01364,-1.296542 11.88554,0.609083 13.90849,5.440255 3.16064,7.548176 3.81028,6.019008 6.01577,-14.160266 z"
       style="fill:#000000;fill-opacity:1" />
  </g>
</svg>
