<?xml version="1.0" encoding="UTF-8" standalone="no"?>
<svg
   viewBox="0 0 298 136"
   height="136"
   width="298"
   id="svg2"
   version="1.1"
   sodipodi:docname="acme_logo.svg"
   inkscape:version="1.1.1 (c3084ef, 2021-09-22)"
   xmlns:inkscape="http://www.inkscape.org/namespaces/inkscape"
   xmlns:sodipodi="http://sodipodi.sourceforge.net/DTD/sodipodi-0.dtd"
   xmlns="http://www.w3.org/2000/svg"
   xmlns:svg="http://www.w3.org/2000/svg"
   xmlns:rdf="http://www.w3.org/1999/02/22-rdf-syntax-ns#"
   xmlns:cc="http://creativecommons.org/ns#"
   xmlns:dc="http://purl.org/dc/elements/1.1/">
  <sodipodi:namedview
     id="namedview15"
     pagecolor="#ffffff"
     bordercolor="#666666"
     borderopacity="1.0"
     inkscape:pageshadow="2"
     inkscape:pageopacity="0.0"
     inkscape:pagecheckerboard="0"
     showgrid="false"
     inkscape:zoom="1.8045331"
     inkscape:cx="114.43403"
     inkscape:cy="83.401075"
     inkscape:window-width="1312"
     inkscape:window-height="847"
     inkscape:window-x="49"
     inkscape:window-y="25"
     inkscape:window-maximized="0"
     inkscape:current-layer="svg2" />
  <metadata
     id="metadata8">
    <rdf:RDF>
      <cc:Work
         rdf:about="">
        <dc:format>image/svg+xml</dc:format>
        <dc:type
           rdf:resource="http://purl.org/dc/dcmitype/StillImage" />
        <dc:title />
      </cc:Work>
    </rdf:RDF>
  </metadata>
  <defs
     id="defs6" />
  <g
     id="g194"
     transform="matrix(0.29828837,0,0,0.29828837,19.584628,-18.766028)">
    <g
       id="Ebene_2">
</g>
    <g
       id="g4966"
       transform="translate(114.11021,21.395664)">
      <g
         id="g5019"
         transform="matrix(2.9691571,0,0,2.9691571,-272.17209,-937.89457)"
         inkscape:export-filename="/Users/paulwlodkowski/Documents/git_repos/flowkey-playground/notebooks/acme_template/flowkey_insights.png"
         inkscape:export-xdpi="96"
         inkscape:export-ydpi="96">
        <g
           id="Ebene_1_1_"
           style="fill:#000000"
           transform="translate(-104.30628,-1.7006459)">
	<g
   id="g56"
   style="fill:#000000">
		<g
   id="g40"
   style="fill:#000000">
			<g
   id="g38"
   style="fill:#000000">
				<path
   fill="#FFFFFF"
   d="m 366.839,406.965 c -2.01,2.478 -4.391,4.153 -5.311,4.193 -1.561,0.065 -3.258,-3.169 -6.496,-10.096 -2.021,-4.415 -3.562,-8.113 -4.609,-11.188 2.086,-2.752 5.424,-4.491 8.449,-4.618 2.104,-0.09 3.686,0.395 4.625,0.814 0.561,0.244 1.277,-0.15 1.797,-0.814 1.141,-1.246 2.242,-3.404 2.166,-5.145 -0.086,-2.016 -2.256,-3.394 -4.914,-3.279 -4.855,0.209 -9.607,5.309 -14.525,10.573 -2.371,2.49 -4.471,4.966 -6.906,8.101 l -0.184,0.01 c 2.377,-13.143 4.518,-25.356 6.885,-38.586 l -0.859,-2.811 -20.049,2.561 0.104,4.055 4.039,-0.33 c 3.148,-0.261 4.824,1.473 4.566,5.403 -0.598,9.142 -1.348,16.917 -2.734,25.093 -1.451,8.54 -4.51,16.684 -12.572,23.833 -1.543,1.364 -5.205,4.911 -5.205,4.911 5.162,-1.146 10.07,-2.959 13.127,-4.616 3.865,-2.097 10.701,-7.062 11.689,-13.134 0.227,-1.381 1.631,-2.642 2.68,-3.879 1.98,5.513 4.326,10.925 6.248,15.158 2.121,4.404 4.041,6.578 6.607,6.466 2.656,-0.111 7.889,-2.499 12.633,-9.683 z"
   id="path36"
   style="fill:#000000" />

			</g>

		</g>

		<g
   id="g46"
   style="fill:#000000">
			<g
   id="g44"
   style="fill:#000000">
				<path
   fill="#FFFFFF"
   d="m 223.081,340.69 c -6.604,-1.826 -12.685,4.324 -17.137,11.276 -3.463,5.414 -6.024,11.661 -7.265,18.916 l -0.337,1.893 -1.237,0.006 -5.411,0.03 -1.49,4.502 6.102,-0.034 1.294,-0.007 c -1.212,8.766 -1.176,16.087 -2.996,27.572 -0.357,2.362 -0.736,4.442 -1.12,6.309 -4.115,-3.211 -11.751,-3.637 -19.335,-0.608 -9.683,3.87 -15.583,11.875 -13.185,17.889 2.405,6.016 12.198,7.756 21.88,3.887 5.221,-2.084 9.326,-5.375 11.64,-8.906 3.634,-4.305 6.222,-10.134 8.639,-20.907 2.231,-9.584 4.347,-17.901 5.778,-25.34 l 7.582,-0.822 1.997,-3.684 -8.87,0.052 0.259,-1.892 c 1.6,-9.736 5.575,-22.968 11.63,-23.002 3.484,-0.021 4.103,7.891 5.213,9.718 0,0 1.828,1.088 1.732,-1.011 -0.366,-7.877 0.67,-14.169 -5.363,-15.837 z m -42.154,87.683 c -5.92,2.549 -11.998,1.631 -13.579,-2.047 -1.579,-3.676 1.936,-8.716 7.857,-11.263 5.92,-2.547 11.999,-1.631 13.58,2.049 1.579,3.675 -1.939,8.72 -7.858,11.261 z"
   id="path42"
   style="fill:#000000" />

			</g>

		</g>

		<path
   fill="#FFFFFF"
   d="m 438.093,382.969 c -0.113,-4.127 -2.512,-6.133 -4.898,-6.117 -1.922,0.008 -3.844,1.213 -4.842,3.055 -0.639,1.014 -0.723,2.203 -0.35,3.21 0.463,1.28 1.299,2.655 1.314,4.948 0.125,6.422 -4.965,14.523 -9.605,21.705 l -0.182,0.002 c -0.502,-7.428 -0.992,-12.933 -2.041,-20.448 -1.156,-9.074 -3.189,-12.367 -6.492,-12.35 -3.945,0.023 -9.238,4.915 -13.146,11.359 l -0.352,2.543 c 2.643,-3.408 6.578,-4.78 7.215,-4.783 0.557,-0.002 1.297,0.91 1.955,4.117 1.752,8.084 3.527,22.043 3.479,29.465 -2.152,2.796 -16.684,15.669 -78.744,7.992 -64.746,-8.009 -92.148,11.221 -100.455,17.201 L 226.705,448 c 0,0 42.04,-15.775 80.314,-15.992 39.445,-0.225 64.23,12.359 86.445,3.336 14.969,-6.072 23.832,-17.666 26.465,-21.413 5.189,-7.554 10.465,-13.58 14.648,-20.669 2.635,-4.232 3.624,-7.631 3.516,-10.293 z"
   id="path48"
   style="fill:#000000" />

		<path
   fill="#FFFFFF"
   d="m 217.157,419.666 c 3.203,-0.02 9.741,-2.746 14.905,-8.554 0.11,-0.122 0.468,-0.498 0.894,-0.948 1.387,5.15 5.066,9.547 13.142,9.502 5.688,-0.032 11.727,-2.543 15.745,-6.051 6.663,-5.633 9.645,-14.182 9.6,-22.164 -0.005,-0.748 -0.044,-1.471 -0.114,-2.174 2.3,-2.443 4.638,-4.092 5.401,-4.097 0.642,-0.002 1.018,1.556 1.402,4.485 0.768,5.779 0.335,21.979 1.955,28.463 0.458,1.836 2.729,1.879 3.996,0.611 6.37,-6.371 9.897,-16.593 14.717,-24.508 h 0.181 c 1.237,7.971 1.479,22.477 3.608,25.008 0.884,1.049 2.918,0.392 3.763,-0.022 7.157,-3.505 14.042,-15.675 16.954,-20.277 2.092,-3.406 5.293,-13.036 5.277,-16.063 -0.02,-3.577 -2.326,-6.04 -5.078,-6.024 -2.205,0.014 -4.029,1.674 -4.844,3.513 -0.455,0.921 -0.447,2.113 -0.074,2.845 0.555,1.002 1.117,2.091 1.125,4.017 0.031,5.688 -4.816,14.716 -8.094,19.229 h -0.182 c -1.523,-9.349 -2.668,-17.555 -4.381,-27.727 l -3.301,0.015 c -4.811,9.2 -9.999,16.893 -14.537,25.084 l -0.183,0.003 c 0.067,-4.497 0.037,-9.727 -0.37,-16.606 -0.41,-7.796 -1.682,-10.394 -4.711,-10.372 -3.526,0.016 -9.092,3.564 -13.235,9.16 -1.62,-5.688 -5.963,-9.201 -12.939,-9.16 -3.944,0.021 -8.25,1.42 -11.998,3.461 -6.951,3.708 -13.598,12.369 -13.531,24.297 0.003,0.645 0.031,1.297 0.087,1.951 -0.815,0.786 -1.787,1.721 -2.04,1.915 -1.854,1.436 -3.988,2.607 -4.659,2.611 -0.734,0.002 -0.832,-1.008 -0.121,-5.322 2.815,-15.996 5.829,-30.5 9.274,-47.572 0.624,-2.752 0.986,-3.803 -0.073,-4.219 -1.026,-0.4 -4.58,0.131 -7.345,1.566 -2.435,1.266 -3.696,5.42 -4.21,7.215 -4.194,14.668 -6.264,31.107 -8.645,45.088 -1.689,9.951 0.163,11.837 2.639,11.821 z m 34.776,-38.287 c 0.828,-0.37 1.651,-0.467 2.292,-0.471 3.028,-0.018 5.339,2.996 5.379,10.061 0.073,13.027 -4.094,22.684 -7.571,24.079 -0.822,0.278 -1.281,0.464 -2.29,0.468 -2.75,0.019 -5.521,-3.086 -5.559,-10.147 -0.086,-14.957 5.372,-22.873 7.749,-23.99 z"
   id="path50"
   style="fill:#000000" />

		<g
   id="g54"
   style="fill:#000000">
			<path
   fill="#FFFFFF"
   d="m 397.261,408.785 c -8.105,8.742 -14.846,11.02 -20.127,11.02 -5.373,0 -10.475,-2.914 -10.475,-13.297 0,-8.834 4.189,-18.215 10.383,-23.225 3.369,-2.822 9.473,-5.919 13.934,-5.919 6.105,0 8.652,3.733 8.652,7.832 0,9.017 -12.84,13.753 -21.947,16.212 -0.092,0.729 -0.092,1.548 -0.092,2.186 0,5.191 1.549,9.199 5.646,9.199 3.461,0 8.195,-2.277 12.387,-6.377 z m -13.115,-25.957 c -1.549,1.184 -4.918,6.012 -6.102,15.21 8.926,-2.915 12.021,-6.739 12.021,-11.476 0,-3.734 -1.914,-5.009 -3.279,-5.009 -0.818,10e-4 -1.728,0.365 -2.64,1.275 z"
   id="path52"
   style="fill:#000000" />

		</g>

	</g>

</g>
        <text
           xml:space="preserve"
           style="font-style:italic;font-variant:normal;font-weight:normal;font-stretch:normal;font-size:32px;line-height:1.25;font-family:Didot;-inkscape-font-specification:'Didot, Italic';font-variant-ligatures:normal;font-variant-caps:normal;font-variant-numeric:normal;font-variant-east-asian:normal;fill:#000000;fill-opacity:1;stroke:none"
           x="157.09096"
           y="467.15997"
           id="text791"><tspan
             sodipodi:role="line"
             id="tspan789"
             x="157.09096"
             y="467.15997"
             style="font-style:italic;font-variant:normal;font-weight:normal;font-stretch:normal;font-size:32px;font-family:Didot;-inkscape-font-specification:'Didot, Italic';font-variant-ligatures:normal;font-variant-caps:normal;font-variant-numeric:normal;font-variant-east-asian:normal">Insights</tspan></text>
      </g>
    </g>
  </g>
</svg>
